<svg width="310" height="245" viewBox="0 0 310 245" fill="none" xmlns="http://www.w3.org/2000/svg">
<ellipse cx="98.5" cy="116" rx="98.5" ry="99" fill="black" fill-opacity="0.58"/>
<path d="M143.184 103.744V175.552C143.184 177.088 143.739 178.325 144.848 179.264C145.957 180.117 147.323 180.629 148.944 180.8L152.656 181.056C153.68 181.056 154.192 181.611 154.192 182.72C154.192 183.232 153.979 183.659 153.552 184C153.211 184.341 152.827 184.512 152.4 184.512L137.936 184L122.064 184.512C121.637 184.512 121.211 184.341 120.784 184C120.443 183.659 120.272 183.232 120.272 182.72C120.272 181.611 120.784 181.056 121.808 181.056L126.544 180.8C128.165 180.629 129.531 180.117 130.64 179.264C131.749 178.325 132.304 177.088 132.304 175.552V103.744C132.304 101.44 131.237 100.288 129.104 100.288H118.352C114.171 100.288 110.885 101.44 108.496 103.744C106.107 105.963 104.229 109.291 102.864 113.728C102.352 115.008 101.627 115.648 100.688 115.648C99.8347 115.648 99.1947 115.435 98.768 115.008C98.3413 114.496 98.1707 113.941 98.256 113.344L99.28 96.832C99.4507 95.2107 100.389 94.4 102.096 94.4H173.008C174.8 94.4 175.781 95.424 175.952 97.472L177.232 113.344C177.317 114.027 177.147 114.581 176.72 115.008C176.293 115.435 175.611 115.648 174.672 115.648C173.819 115.648 173.136 115.008 172.624 113.728C171.088 109.205 169.125 105.835 166.736 103.616C164.432 101.397 161.232 100.288 157.136 100.288H146.384C144.251 100.288 143.184 101.44 143.184 103.744Z" fill="white"/>
<path d="M93.048 184H33.016C31.992 184 31.48 183.531 31.48 182.592V181.44C31.48 180.587 31.6933 179.861 32.12 179.264L81.784 101.568C82.296 100.715 82.04 100.288 81.016 100.288H52.856C49.272 100.288 46.2 101.397 43.64 103.616C41.08 105.835 39.2453 108.523 38.136 111.68C37.7947 113.131 36.984 113.856 35.704 113.856C35.1067 113.856 34.6373 113.643 34.296 113.216C33.9547 112.704 33.8267 112.192 33.912 111.68L36.472 98.24C36.8987 95.68 38.0507 94.4 39.928 94.4H95.48C96.504 94.4 97.016 94.7413 97.016 95.424V96.704C97.016 97.216 96.504 98.3253 95.48 100.032L47.48 175.68C47.1387 176.192 47.0107 176.661 47.096 177.088C47.1813 177.515 47.4373 177.728 47.864 177.728H77.688C86.392 177.728 92.6213 173.035 96.376 163.648C96.888 162.368 97.7413 161.728 98.936 161.728C100.387 161.728 101.027 162.496 100.856 164.032L98.808 178.88C98.6373 180.331 98.04 181.568 97.016 182.592C95.992 183.531 94.6693 184 93.048 184Z" fill="white"/>
<path d="M113.424 72.72C118.8 73.4027 123.579 75.8773 127.76 80.144C132.027 84.3253 134.16 89.8293 134.16 96.656C134.16 103.483 131.6 109.413 126.48 114.448C121.36 119.483 115.003 122 107.408 122H78.224L63.76 122.512C62.5653 122.512 61.968 121.829 61.968 120.464C61.968 119.525 62.4373 119.056 63.376 119.056L67.088 118.8C71.0133 118.288 72.976 116.539 72.976 113.552V40.848C72.976 37.776 71.0133 36.0693 67.088 35.728L63.376 35.344C62.4373 35.1733 61.968 34.6613 61.968 33.808C61.968 32.528 62.5653 31.888 63.76 31.888L79.76 32.4H104.592C111.248 32.4 116.795 34.448 121.232 38.544C125.669 42.64 127.888 47.4187 127.888 52.88C127.888 58.3413 126.437 62.6933 123.536 65.936C120.635 69.0933 117.264 71.2693 113.424 72.464V72.72ZM111.632 65.936C114.875 62.9493 116.496 58.9813 116.496 54.032C116.496 49.0827 114.917 45.2 111.76 42.384C108.603 39.4827 104.464 38.032 99.344 38.032H88.592C87.3973 38.032 86.288 38.5013 85.264 39.44C84.3253 40.2933 83.856 41.1893 83.856 42.128V67.856C83.856 69.5627 84.7093 70.416 86.416 70.416H99.344C104.379 70.416 108.475 68.9227 111.632 65.936ZM101.648 116.368C107.792 116.368 112.827 114.491 116.752 110.736C120.763 106.981 122.768 102.117 122.768 96.144C122.768 90.0853 120.763 85.2213 116.752 81.552C112.827 77.8827 107.792 76.048 101.648 76.048H86.032C84.5813 76.048 83.856 76.816 83.856 78.352V111.248C83.856 114.661 85.5627 116.368 88.976 116.368H101.648Z" fill="white"/>
</svg>
